<mxfile host="app.diagrams.net" modified="2024-01-08T09:13:36.141Z" agent="Mozilla/5.0 (Windows NT 10.0; Win64; x64) AppleWebKit/537.36 (KHTML, like Gecko) Chrome/120.0.0.0 Safari/537.36" etag="sfJcHPqLHgaaVeiGyQmU" version="22.1.17" type="github">
  <diagram id="C5RBs43oDa-KdzZeNtuy" name="Page-1">
    <mxGraphModel dx="1360" dy="786" grid="1" gridSize="10" guides="1" tooltips="1" connect="1" arrows="1" fold="1" page="1" pageScale="1" pageWidth="827" pageHeight="1169" math="0" shadow="0">
      <root>
        <mxCell id="WIyWlLk6GJQsqaUBKTNV-0" />
        <mxCell id="WIyWlLk6GJQsqaUBKTNV-1" parent="WIyWlLk6GJQsqaUBKTNV-0" />
        <mxCell id="peSS8BjJkWD9wYSKXk7N-131" value="输出汇总结果" style="whiteSpace=wrap;html=1;rounded=1;glass=0;strokeWidth=1;shadow=0;" parent="WIyWlLk6GJQsqaUBKTNV-1" vertex="1">
          <mxGeometry x="390" y="460" width="120" height="60" as="geometry" />
        </mxCell>
        <mxCell id="z_ddYTSFjH_n10K_XN0T-2" value="" style="edgeStyle=orthogonalEdgeStyle;rounded=0;orthogonalLoop=1;jettySize=auto;html=1;" edge="1" parent="WIyWlLk6GJQsqaUBKTNV-1" source="z_ddYTSFjH_n10K_XN0T-0" target="z_ddYTSFjH_n10K_XN0T-1">
          <mxGeometry relative="1" as="geometry" />
        </mxCell>
        <mxCell id="z_ddYTSFjH_n10K_XN0T-0" value="触发计算" style="rounded=1;whiteSpace=wrap;html=1;" vertex="1" parent="WIyWlLk6GJQsqaUBKTNV-1">
          <mxGeometry x="390" y="50" width="120" height="60" as="geometry" />
        </mxCell>
        <mxCell id="z_ddYTSFjH_n10K_XN0T-4" value="" style="edgeStyle=orthogonalEdgeStyle;rounded=0;orthogonalLoop=1;jettySize=auto;html=1;" edge="1" parent="WIyWlLk6GJQsqaUBKTNV-1" source="z_ddYTSFjH_n10K_XN0T-1" target="z_ddYTSFjH_n10K_XN0T-3">
          <mxGeometry relative="1" as="geometry" />
        </mxCell>
        <mxCell id="z_ddYTSFjH_n10K_XN0T-1" value="根据规则过滤数据" style="rounded=1;whiteSpace=wrap;html=1;" vertex="1" parent="WIyWlLk6GJQsqaUBKTNV-1">
          <mxGeometry x="390" y="190" width="120" height="60" as="geometry" />
        </mxCell>
        <mxCell id="z_ddYTSFjH_n10K_XN0T-5" value="" style="edgeStyle=orthogonalEdgeStyle;rounded=0;orthogonalLoop=1;jettySize=auto;html=1;" edge="1" parent="WIyWlLk6GJQsqaUBKTNV-1" source="z_ddYTSFjH_n10K_XN0T-3" target="peSS8BjJkWD9wYSKXk7N-131">
          <mxGeometry relative="1" as="geometry" />
        </mxCell>
        <mxCell id="z_ddYTSFjH_n10K_XN0T-7" value="" style="edgeStyle=orthogonalEdgeStyle;rounded=0;orthogonalLoop=1;jettySize=auto;html=1;" edge="1" parent="WIyWlLk6GJQsqaUBKTNV-1" source="z_ddYTSFjH_n10K_XN0T-3">
          <mxGeometry relative="1" as="geometry">
            <mxPoint x="750" y="360" as="targetPoint" />
          </mxGeometry>
        </mxCell>
        <mxCell id="z_ddYTSFjH_n10K_XN0T-3" value="调用计算模块" style="whiteSpace=wrap;html=1;rounded=1;" vertex="1" parent="WIyWlLk6GJQsqaUBKTNV-1">
          <mxGeometry x="390" y="330" width="120" height="60" as="geometry" />
        </mxCell>
        <mxCell id="z_ddYTSFjH_n10K_XN0T-9" value="" style="group;rounded=0;labelBorderColor=#000000;" vertex="1" connectable="0" parent="WIyWlLk6GJQsqaUBKTNV-1">
          <mxGeometry x="700" y="50" width="640" height="930" as="geometry" />
        </mxCell>
        <mxCell id="peSS8BjJkWD9wYSKXk7N-93" value="每个子任务异步运行" style="text;strokeColor=none;align=center;fillColor=none;html=1;verticalAlign=middle;whiteSpace=wrap;rounded=0;" parent="z_ddYTSFjH_n10K_XN0T-9" vertex="1">
          <mxGeometry y="470" width="60" height="30" as="geometry" />
        </mxCell>
        <mxCell id="z_ddYTSFjH_n10K_XN0T-8" value="" style="group" vertex="1" connectable="0" parent="z_ddYTSFjH_n10K_XN0T-9">
          <mxGeometry x="70" y="-7" width="570" height="930" as="geometry" />
        </mxCell>
        <mxCell id="peSS8BjJkWD9wYSKXk7N-2" value="主协程" style="whiteSpace=wrap;html=1;rounded=1;glass=0;strokeWidth=1;shadow=0;" parent="z_ddYTSFjH_n10K_XN0T-8" vertex="1">
          <mxGeometry x="20" width="530" height="30" as="geometry" />
        </mxCell>
        <mxCell id="peSS8BjJkWD9wYSKXk7N-4" value="79.2协程组" style="whiteSpace=wrap;html=1;rounded=1;glass=0;strokeWidth=1;shadow=0;" parent="z_ddYTSFjH_n10K_XN0T-8" vertex="1">
          <mxGeometry x="30" y="90" width="120" height="60" as="geometry" />
        </mxCell>
        <mxCell id="peSS8BjJkWD9wYSKXk7N-6" value="79.2-199.8协程组" style="whiteSpace=wrap;html=1;rounded=1;glass=0;strokeWidth=1;shadow=0;" parent="z_ddYTSFjH_n10K_XN0T-8" vertex="1">
          <mxGeometry x="164" y="90" width="120" height="60" as="geometry" />
        </mxCell>
        <mxCell id="peSS8BjJkWD9wYSKXk7N-7" value="199.8协程组" style="whiteSpace=wrap;html=1;rounded=1;glass=0;strokeWidth=1;shadow=0;" parent="z_ddYTSFjH_n10K_XN0T-8" vertex="1">
          <mxGeometry x="300" y="90" width="120" height="60" as="geometry" />
        </mxCell>
        <mxCell id="peSS8BjJkWD9wYSKXk7N-8" value="all协程组" style="whiteSpace=wrap;html=1;rounded=1;glass=0;strokeWidth=1;shadow=0;" parent="z_ddYTSFjH_n10K_XN0T-8" vertex="1">
          <mxGeometry x="440" y="90" width="120" height="60" as="geometry" />
        </mxCell>
        <mxCell id="peSS8BjJkWD9wYSKXk7N-27" value="数据总量计算子协程" style="ellipse;whiteSpace=wrap;html=1;rounded=1;glass=0;strokeWidth=1;shadow=0;" parent="z_ddYTSFjH_n10K_XN0T-8" vertex="1">
          <mxGeometry x="50" y="180" width="80" height="80" as="geometry" />
        </mxCell>
        <mxCell id="peSS8BjJkWD9wYSKXk7N-28" value="" style="edgeStyle=orthogonalEdgeStyle;rounded=0;orthogonalLoop=1;jettySize=auto;html=1;" parent="z_ddYTSFjH_n10K_XN0T-8" source="peSS8BjJkWD9wYSKXk7N-4" target="peSS8BjJkWD9wYSKXk7N-27" edge="1">
          <mxGeometry relative="1" as="geometry" />
        </mxCell>
        <mxCell id="peSS8BjJkWD9wYSKXk7N-29" value="平均偏差计算子协程" style="ellipse;whiteSpace=wrap;html=1;rounded=1;glass=0;strokeWidth=1;shadow=0;" parent="z_ddYTSFjH_n10K_XN0T-8" vertex="1">
          <mxGeometry x="50" y="285" width="80" height="80" as="geometry" />
        </mxCell>
        <mxCell id="peSS8BjJkWD9wYSKXk7N-30" value="" style="edgeStyle=orthogonalEdgeStyle;rounded=0;orthogonalLoop=1;jettySize=auto;html=1;" parent="z_ddYTSFjH_n10K_XN0T-8" source="peSS8BjJkWD9wYSKXk7N-27" target="peSS8BjJkWD9wYSKXk7N-29" edge="1">
          <mxGeometry relative="1" as="geometry" />
        </mxCell>
        <mxCell id="peSS8BjJkWD9wYSKXk7N-31" value="mard值计算子协程" style="ellipse;whiteSpace=wrap;html=1;rounded=1;glass=0;strokeWidth=1;shadow=0;" parent="z_ddYTSFjH_n10K_XN0T-8" vertex="1">
          <mxGeometry x="50" y="400" width="80" height="80" as="geometry" />
        </mxCell>
        <mxCell id="peSS8BjJkWD9wYSKXk7N-32" value="" style="edgeStyle=orthogonalEdgeStyle;rounded=0;orthogonalLoop=1;jettySize=auto;html=1;" parent="z_ddYTSFjH_n10K_XN0T-8" source="peSS8BjJkWD9wYSKXk7N-29" target="peSS8BjJkWD9wYSKXk7N-31" edge="1">
          <mxGeometry relative="1" as="geometry" />
        </mxCell>
        <mxCell id="peSS8BjJkWD9wYSKXk7N-33" value="median mard计算子协程" style="ellipse;whiteSpace=wrap;html=1;rounded=1;glass=0;strokeWidth=1;shadow=0;" parent="z_ddYTSFjH_n10K_XN0T-8" vertex="1">
          <mxGeometry x="50" y="510" width="80" height="80" as="geometry" />
        </mxCell>
        <mxCell id="peSS8BjJkWD9wYSKXk7N-34" value="" style="edgeStyle=orthogonalEdgeStyle;rounded=0;orthogonalLoop=1;jettySize=auto;html=1;" parent="z_ddYTSFjH_n10K_XN0T-8" source="peSS8BjJkWD9wYSKXk7N-31" target="peSS8BjJkWD9wYSKXk7N-33" edge="1">
          <mxGeometry relative="1" as="geometry" />
        </mxCell>
        <mxCell id="peSS8BjJkWD9wYSKXk7N-35" value="±20%/20mg/dl计算子协程" style="ellipse;whiteSpace=wrap;html=1;rounded=1;glass=0;strokeWidth=1;shadow=0;" parent="z_ddYTSFjH_n10K_XN0T-8" vertex="1">
          <mxGeometry x="50" y="620" width="80" height="80" as="geometry" />
        </mxCell>
        <mxCell id="peSS8BjJkWD9wYSKXk7N-36" value="" style="edgeStyle=orthogonalEdgeStyle;rounded=0;orthogonalLoop=1;jettySize=auto;html=1;" parent="z_ddYTSFjH_n10K_XN0T-8" source="peSS8BjJkWD9wYSKXk7N-33" target="peSS8BjJkWD9wYSKXk7N-35" edge="1">
          <mxGeometry relative="1" as="geometry" />
        </mxCell>
        <mxCell id="peSS8BjJkWD9wYSKXk7N-39" value="±40%/40mg/dl计算子协程" style="ellipse;whiteSpace=wrap;html=1;rounded=1;glass=0;strokeWidth=1;shadow=0;" parent="z_ddYTSFjH_n10K_XN0T-8" vertex="1">
          <mxGeometry x="50" y="730" width="80" height="80" as="geometry" />
        </mxCell>
        <mxCell id="peSS8BjJkWD9wYSKXk7N-40" value="" style="edgeStyle=orthogonalEdgeStyle;rounded=0;orthogonalLoop=1;jettySize=auto;html=1;" parent="z_ddYTSFjH_n10K_XN0T-8" source="peSS8BjJkWD9wYSKXk7N-35" target="peSS8BjJkWD9wYSKXk7N-39" edge="1">
          <mxGeometry relative="1" as="geometry" />
        </mxCell>
        <mxCell id="peSS8BjJkWD9wYSKXk7N-43" value="平均偏差计算子协程" style="ellipse;whiteSpace=wrap;html=1;rounded=1;glass=0;strokeWidth=1;shadow=0;" parent="z_ddYTSFjH_n10K_XN0T-8" vertex="1">
          <mxGeometry x="184" y="285" width="80" height="80" as="geometry" />
        </mxCell>
        <mxCell id="peSS8BjJkWD9wYSKXk7N-45" value="mard值计算子协程" style="ellipse;whiteSpace=wrap;html=1;rounded=1;glass=0;strokeWidth=1;shadow=0;" parent="z_ddYTSFjH_n10K_XN0T-8" vertex="1">
          <mxGeometry x="184" y="400" width="80" height="80" as="geometry" />
        </mxCell>
        <mxCell id="peSS8BjJkWD9wYSKXk7N-42" value="" style="edgeStyle=orthogonalEdgeStyle;rounded=0;orthogonalLoop=1;jettySize=auto;html=1;" parent="z_ddYTSFjH_n10K_XN0T-8" source="peSS8BjJkWD9wYSKXk7N-43" target="peSS8BjJkWD9wYSKXk7N-45" edge="1">
          <mxGeometry relative="1" as="geometry" />
        </mxCell>
        <mxCell id="peSS8BjJkWD9wYSKXk7N-47" value="median mard计算子协程" style="ellipse;whiteSpace=wrap;html=1;rounded=1;glass=0;strokeWidth=1;shadow=0;" parent="z_ddYTSFjH_n10K_XN0T-8" vertex="1">
          <mxGeometry x="184" y="510" width="80" height="80" as="geometry" />
        </mxCell>
        <mxCell id="peSS8BjJkWD9wYSKXk7N-44" value="" style="edgeStyle=orthogonalEdgeStyle;rounded=0;orthogonalLoop=1;jettySize=auto;html=1;" parent="z_ddYTSFjH_n10K_XN0T-8" source="peSS8BjJkWD9wYSKXk7N-45" target="peSS8BjJkWD9wYSKXk7N-47" edge="1">
          <mxGeometry relative="1" as="geometry" />
        </mxCell>
        <mxCell id="peSS8BjJkWD9wYSKXk7N-49" value="±20%/20mg/dl计算子协程" style="ellipse;whiteSpace=wrap;html=1;rounded=1;glass=0;strokeWidth=1;shadow=0;" parent="z_ddYTSFjH_n10K_XN0T-8" vertex="1">
          <mxGeometry x="184" y="620" width="80" height="80" as="geometry" />
        </mxCell>
        <mxCell id="peSS8BjJkWD9wYSKXk7N-46" value="" style="edgeStyle=orthogonalEdgeStyle;rounded=0;orthogonalLoop=1;jettySize=auto;html=1;" parent="z_ddYTSFjH_n10K_XN0T-8" source="peSS8BjJkWD9wYSKXk7N-47" target="peSS8BjJkWD9wYSKXk7N-49" edge="1">
          <mxGeometry relative="1" as="geometry" />
        </mxCell>
        <mxCell id="peSS8BjJkWD9wYSKXk7N-50" value="±40%/40mg/dl计算子协程" style="ellipse;whiteSpace=wrap;html=1;rounded=1;glass=0;strokeWidth=1;shadow=0;" parent="z_ddYTSFjH_n10K_XN0T-8" vertex="1">
          <mxGeometry x="184" y="730" width="80" height="80" as="geometry" />
        </mxCell>
        <mxCell id="peSS8BjJkWD9wYSKXk7N-48" value="" style="edgeStyle=orthogonalEdgeStyle;rounded=0;orthogonalLoop=1;jettySize=auto;html=1;" parent="z_ddYTSFjH_n10K_XN0T-8" source="peSS8BjJkWD9wYSKXk7N-49" target="peSS8BjJkWD9wYSKXk7N-50" edge="1">
          <mxGeometry relative="1" as="geometry" />
        </mxCell>
        <mxCell id="peSS8BjJkWD9wYSKXk7N-51" value="数据总量计算子协程" style="ellipse;whiteSpace=wrap;html=1;rounded=1;glass=0;strokeWidth=1;shadow=0;" parent="z_ddYTSFjH_n10K_XN0T-8" vertex="1">
          <mxGeometry x="184" y="180" width="80" height="80" as="geometry" />
        </mxCell>
        <mxCell id="peSS8BjJkWD9wYSKXk7N-85" value="" style="edgeStyle=orthogonalEdgeStyle;rounded=0;orthogonalLoop=1;jettySize=auto;html=1;" parent="z_ddYTSFjH_n10K_XN0T-8" source="peSS8BjJkWD9wYSKXk7N-6" target="peSS8BjJkWD9wYSKXk7N-51" edge="1">
          <mxGeometry relative="1" as="geometry" />
        </mxCell>
        <mxCell id="peSS8BjJkWD9wYSKXk7N-41" value="" style="edgeStyle=orthogonalEdgeStyle;rounded=0;orthogonalLoop=1;jettySize=auto;html=1;" parent="z_ddYTSFjH_n10K_XN0T-8" source="peSS8BjJkWD9wYSKXk7N-51" target="peSS8BjJkWD9wYSKXk7N-43" edge="1">
          <mxGeometry relative="1" as="geometry" />
        </mxCell>
        <mxCell id="peSS8BjJkWD9wYSKXk7N-54" value="平均偏差计算子协程" style="ellipse;whiteSpace=wrap;html=1;rounded=1;glass=0;strokeWidth=1;shadow=0;" parent="z_ddYTSFjH_n10K_XN0T-8" vertex="1">
          <mxGeometry x="320" y="285" width="80" height="80" as="geometry" />
        </mxCell>
        <mxCell id="peSS8BjJkWD9wYSKXk7N-56" value="mard值计算子协程" style="ellipse;whiteSpace=wrap;html=1;rounded=1;glass=0;strokeWidth=1;shadow=0;" parent="z_ddYTSFjH_n10K_XN0T-8" vertex="1">
          <mxGeometry x="320" y="400" width="80" height="80" as="geometry" />
        </mxCell>
        <mxCell id="peSS8BjJkWD9wYSKXk7N-53" value="" style="edgeStyle=orthogonalEdgeStyle;rounded=0;orthogonalLoop=1;jettySize=auto;html=1;" parent="z_ddYTSFjH_n10K_XN0T-8" source="peSS8BjJkWD9wYSKXk7N-54" target="peSS8BjJkWD9wYSKXk7N-56" edge="1">
          <mxGeometry relative="1" as="geometry" />
        </mxCell>
        <mxCell id="peSS8BjJkWD9wYSKXk7N-58" value="median mard计算子协程" style="ellipse;whiteSpace=wrap;html=1;rounded=1;glass=0;strokeWidth=1;shadow=0;" parent="z_ddYTSFjH_n10K_XN0T-8" vertex="1">
          <mxGeometry x="320" y="510" width="80" height="80" as="geometry" />
        </mxCell>
        <mxCell id="peSS8BjJkWD9wYSKXk7N-55" value="" style="edgeStyle=orthogonalEdgeStyle;rounded=0;orthogonalLoop=1;jettySize=auto;html=1;" parent="z_ddYTSFjH_n10K_XN0T-8" source="peSS8BjJkWD9wYSKXk7N-56" target="peSS8BjJkWD9wYSKXk7N-58" edge="1">
          <mxGeometry relative="1" as="geometry" />
        </mxCell>
        <mxCell id="peSS8BjJkWD9wYSKXk7N-60" value="±20%/20mg/dl计算子协程" style="ellipse;whiteSpace=wrap;html=1;rounded=1;glass=0;strokeWidth=1;shadow=0;" parent="z_ddYTSFjH_n10K_XN0T-8" vertex="1">
          <mxGeometry x="320" y="620" width="80" height="80" as="geometry" />
        </mxCell>
        <mxCell id="peSS8BjJkWD9wYSKXk7N-57" value="" style="edgeStyle=orthogonalEdgeStyle;rounded=0;orthogonalLoop=1;jettySize=auto;html=1;" parent="z_ddYTSFjH_n10K_XN0T-8" source="peSS8BjJkWD9wYSKXk7N-58" target="peSS8BjJkWD9wYSKXk7N-60" edge="1">
          <mxGeometry relative="1" as="geometry" />
        </mxCell>
        <mxCell id="peSS8BjJkWD9wYSKXk7N-61" value="±40%/40mg/dl计算子协程" style="ellipse;whiteSpace=wrap;html=1;rounded=1;glass=0;strokeWidth=1;shadow=0;" parent="z_ddYTSFjH_n10K_XN0T-8" vertex="1">
          <mxGeometry x="320" y="730" width="80" height="80" as="geometry" />
        </mxCell>
        <mxCell id="peSS8BjJkWD9wYSKXk7N-59" value="" style="edgeStyle=orthogonalEdgeStyle;rounded=0;orthogonalLoop=1;jettySize=auto;html=1;" parent="z_ddYTSFjH_n10K_XN0T-8" source="peSS8BjJkWD9wYSKXk7N-60" target="peSS8BjJkWD9wYSKXk7N-61" edge="1">
          <mxGeometry relative="1" as="geometry" />
        </mxCell>
        <mxCell id="peSS8BjJkWD9wYSKXk7N-62" value="数据总量计算子协程" style="ellipse;whiteSpace=wrap;html=1;rounded=1;glass=0;strokeWidth=1;shadow=0;" parent="z_ddYTSFjH_n10K_XN0T-8" vertex="1">
          <mxGeometry x="320" y="180" width="80" height="80" as="geometry" />
        </mxCell>
        <mxCell id="peSS8BjJkWD9wYSKXk7N-86" value="" style="edgeStyle=orthogonalEdgeStyle;rounded=0;orthogonalLoop=1;jettySize=auto;html=1;" parent="z_ddYTSFjH_n10K_XN0T-8" source="peSS8BjJkWD9wYSKXk7N-7" target="peSS8BjJkWD9wYSKXk7N-62" edge="1">
          <mxGeometry relative="1" as="geometry" />
        </mxCell>
        <mxCell id="peSS8BjJkWD9wYSKXk7N-52" value="" style="edgeStyle=orthogonalEdgeStyle;rounded=0;orthogonalLoop=1;jettySize=auto;html=1;" parent="z_ddYTSFjH_n10K_XN0T-8" source="peSS8BjJkWD9wYSKXk7N-62" target="peSS8BjJkWD9wYSKXk7N-54" edge="1">
          <mxGeometry relative="1" as="geometry" />
        </mxCell>
        <mxCell id="peSS8BjJkWD9wYSKXk7N-64" value="数据总量计算子协程" style="ellipse;whiteSpace=wrap;html=1;rounded=1;glass=0;strokeWidth=1;shadow=0;" parent="z_ddYTSFjH_n10K_XN0T-8" vertex="1">
          <mxGeometry x="50" y="180" width="80" height="80" as="geometry" />
        </mxCell>
        <mxCell id="peSS8BjJkWD9wYSKXk7N-66" value="平均偏差计算子协程" style="ellipse;whiteSpace=wrap;html=1;rounded=1;glass=0;strokeWidth=1;shadow=0;" parent="z_ddYTSFjH_n10K_XN0T-8" vertex="1">
          <mxGeometry x="50" y="285" width="80" height="80" as="geometry" />
        </mxCell>
        <mxCell id="peSS8BjJkWD9wYSKXk7N-63" value="" style="edgeStyle=orthogonalEdgeStyle;rounded=0;orthogonalLoop=1;jettySize=auto;html=1;" parent="z_ddYTSFjH_n10K_XN0T-8" source="peSS8BjJkWD9wYSKXk7N-64" target="peSS8BjJkWD9wYSKXk7N-66" edge="1">
          <mxGeometry relative="1" as="geometry" />
        </mxCell>
        <mxCell id="peSS8BjJkWD9wYSKXk7N-68" value="mard值计算子协程" style="ellipse;whiteSpace=wrap;html=1;rounded=1;glass=0;strokeWidth=1;shadow=0;" parent="z_ddYTSFjH_n10K_XN0T-8" vertex="1">
          <mxGeometry x="50" y="400" width="80" height="80" as="geometry" />
        </mxCell>
        <mxCell id="peSS8BjJkWD9wYSKXk7N-65" value="" style="edgeStyle=orthogonalEdgeStyle;rounded=0;orthogonalLoop=1;jettySize=auto;html=1;" parent="z_ddYTSFjH_n10K_XN0T-8" source="peSS8BjJkWD9wYSKXk7N-66" target="peSS8BjJkWD9wYSKXk7N-68" edge="1">
          <mxGeometry relative="1" as="geometry" />
        </mxCell>
        <mxCell id="peSS8BjJkWD9wYSKXk7N-70" value="median mard计算子协程" style="ellipse;whiteSpace=wrap;html=1;rounded=1;glass=0;strokeWidth=1;shadow=0;" parent="z_ddYTSFjH_n10K_XN0T-8" vertex="1">
          <mxGeometry x="50" y="510" width="80" height="80" as="geometry" />
        </mxCell>
        <mxCell id="peSS8BjJkWD9wYSKXk7N-67" value="" style="edgeStyle=orthogonalEdgeStyle;rounded=0;orthogonalLoop=1;jettySize=auto;html=1;" parent="z_ddYTSFjH_n10K_XN0T-8" source="peSS8BjJkWD9wYSKXk7N-68" target="peSS8BjJkWD9wYSKXk7N-70" edge="1">
          <mxGeometry relative="1" as="geometry" />
        </mxCell>
        <mxCell id="peSS8BjJkWD9wYSKXk7N-72" value="±20%/20mg/dl计算子协程" style="ellipse;whiteSpace=wrap;html=1;rounded=1;glass=0;strokeWidth=1;shadow=0;" parent="z_ddYTSFjH_n10K_XN0T-8" vertex="1">
          <mxGeometry x="50" y="620" width="80" height="80" as="geometry" />
        </mxCell>
        <mxCell id="peSS8BjJkWD9wYSKXk7N-69" value="" style="edgeStyle=orthogonalEdgeStyle;rounded=0;orthogonalLoop=1;jettySize=auto;html=1;" parent="z_ddYTSFjH_n10K_XN0T-8" source="peSS8BjJkWD9wYSKXk7N-70" target="peSS8BjJkWD9wYSKXk7N-72" edge="1">
          <mxGeometry relative="1" as="geometry" />
        </mxCell>
        <mxCell id="peSS8BjJkWD9wYSKXk7N-73" value="±40%/40mg/dl计算子协程" style="ellipse;whiteSpace=wrap;html=1;rounded=1;glass=0;strokeWidth=1;shadow=0;" parent="z_ddYTSFjH_n10K_XN0T-8" vertex="1">
          <mxGeometry x="50" y="730" width="80" height="80" as="geometry" />
        </mxCell>
        <mxCell id="peSS8BjJkWD9wYSKXk7N-71" value="" style="edgeStyle=orthogonalEdgeStyle;rounded=0;orthogonalLoop=1;jettySize=auto;html=1;" parent="z_ddYTSFjH_n10K_XN0T-8" source="peSS8BjJkWD9wYSKXk7N-72" target="peSS8BjJkWD9wYSKXk7N-73" edge="1">
          <mxGeometry relative="1" as="geometry" />
        </mxCell>
        <mxCell id="peSS8BjJkWD9wYSKXk7N-76" value="平均偏差计算子协程" style="ellipse;whiteSpace=wrap;html=1;rounded=1;glass=0;strokeWidth=1;shadow=0;" parent="z_ddYTSFjH_n10K_XN0T-8" vertex="1">
          <mxGeometry x="460" y="285" width="80" height="80" as="geometry" />
        </mxCell>
        <mxCell id="peSS8BjJkWD9wYSKXk7N-78" value="mard值计算子协程" style="ellipse;whiteSpace=wrap;html=1;rounded=1;glass=0;strokeWidth=1;shadow=0;" parent="z_ddYTSFjH_n10K_XN0T-8" vertex="1">
          <mxGeometry x="460" y="400" width="80" height="80" as="geometry" />
        </mxCell>
        <mxCell id="peSS8BjJkWD9wYSKXk7N-75" value="" style="edgeStyle=orthogonalEdgeStyle;rounded=0;orthogonalLoop=1;jettySize=auto;html=1;" parent="z_ddYTSFjH_n10K_XN0T-8" source="peSS8BjJkWD9wYSKXk7N-76" target="peSS8BjJkWD9wYSKXk7N-78" edge="1">
          <mxGeometry relative="1" as="geometry" />
        </mxCell>
        <mxCell id="peSS8BjJkWD9wYSKXk7N-80" value="median mard计算子协程" style="ellipse;whiteSpace=wrap;html=1;rounded=1;glass=0;strokeWidth=1;shadow=0;" parent="z_ddYTSFjH_n10K_XN0T-8" vertex="1">
          <mxGeometry x="460" y="510" width="80" height="80" as="geometry" />
        </mxCell>
        <mxCell id="peSS8BjJkWD9wYSKXk7N-77" value="" style="edgeStyle=orthogonalEdgeStyle;rounded=0;orthogonalLoop=1;jettySize=auto;html=1;" parent="z_ddYTSFjH_n10K_XN0T-8" source="peSS8BjJkWD9wYSKXk7N-78" target="peSS8BjJkWD9wYSKXk7N-80" edge="1">
          <mxGeometry relative="1" as="geometry" />
        </mxCell>
        <mxCell id="peSS8BjJkWD9wYSKXk7N-82" value="±20%/20mg/dl计算子协程" style="ellipse;whiteSpace=wrap;html=1;rounded=1;glass=0;strokeWidth=1;shadow=0;" parent="z_ddYTSFjH_n10K_XN0T-8" vertex="1">
          <mxGeometry x="460" y="620" width="80" height="80" as="geometry" />
        </mxCell>
        <mxCell id="peSS8BjJkWD9wYSKXk7N-79" value="" style="edgeStyle=orthogonalEdgeStyle;rounded=0;orthogonalLoop=1;jettySize=auto;html=1;" parent="z_ddYTSFjH_n10K_XN0T-8" source="peSS8BjJkWD9wYSKXk7N-80" target="peSS8BjJkWD9wYSKXk7N-82" edge="1">
          <mxGeometry relative="1" as="geometry" />
        </mxCell>
        <mxCell id="peSS8BjJkWD9wYSKXk7N-83" value="±40%/40mg/dl计算子协程" style="ellipse;whiteSpace=wrap;html=1;rounded=1;glass=0;strokeWidth=1;shadow=0;" parent="z_ddYTSFjH_n10K_XN0T-8" vertex="1">
          <mxGeometry x="460" y="730" width="80" height="80" as="geometry" />
        </mxCell>
        <mxCell id="peSS8BjJkWD9wYSKXk7N-81" value="" style="edgeStyle=orthogonalEdgeStyle;rounded=0;orthogonalLoop=1;jettySize=auto;html=1;" parent="z_ddYTSFjH_n10K_XN0T-8" source="peSS8BjJkWD9wYSKXk7N-82" target="peSS8BjJkWD9wYSKXk7N-83" edge="1">
          <mxGeometry relative="1" as="geometry" />
        </mxCell>
        <mxCell id="peSS8BjJkWD9wYSKXk7N-84" value="数据总量计算子协程" style="ellipse;whiteSpace=wrap;html=1;rounded=1;glass=0;strokeWidth=1;shadow=0;" parent="z_ddYTSFjH_n10K_XN0T-8" vertex="1">
          <mxGeometry x="460" y="180" width="80" height="80" as="geometry" />
        </mxCell>
        <mxCell id="peSS8BjJkWD9wYSKXk7N-87" value="" style="edgeStyle=orthogonalEdgeStyle;rounded=0;orthogonalLoop=1;jettySize=auto;html=1;" parent="z_ddYTSFjH_n10K_XN0T-8" source="peSS8BjJkWD9wYSKXk7N-8" target="peSS8BjJkWD9wYSKXk7N-84" edge="1">
          <mxGeometry relative="1" as="geometry" />
        </mxCell>
        <mxCell id="peSS8BjJkWD9wYSKXk7N-74" value="" style="edgeStyle=orthogonalEdgeStyle;rounded=0;orthogonalLoop=1;jettySize=auto;html=1;" parent="z_ddYTSFjH_n10K_XN0T-8" source="peSS8BjJkWD9wYSKXk7N-84" target="peSS8BjJkWD9wYSKXk7N-76" edge="1">
          <mxGeometry relative="1" as="geometry" />
        </mxCell>
        <mxCell id="peSS8BjJkWD9wYSKXk7N-92" value="" style="shape=curlyBracket;whiteSpace=wrap;html=1;rounded=1;labelPosition=left;verticalLabelPosition=middle;align=right;verticalAlign=middle;" parent="z_ddYTSFjH_n10K_XN0T-8" vertex="1">
          <mxGeometry y="190" width="20" height="590" as="geometry" />
        </mxCell>
        <mxCell id="peSS8BjJkWD9wYSKXk7N-109" value="" style="endArrow=classic;html=1;rounded=0;entryX=0.5;entryY=0;entryDx=0;entryDy=0;" parent="z_ddYTSFjH_n10K_XN0T-8" target="peSS8BjJkWD9wYSKXk7N-4" edge="1">
          <mxGeometry width="50" height="50" relative="1" as="geometry">
            <mxPoint x="89.5" y="30" as="sourcePoint" />
            <mxPoint x="89.5" y="80" as="targetPoint" />
          </mxGeometry>
        </mxCell>
        <mxCell id="peSS8BjJkWD9wYSKXk7N-112" value="" style="endArrow=classic;html=1;rounded=0;entryX=0.5;entryY=0;entryDx=0;entryDy=0;" parent="z_ddYTSFjH_n10K_XN0T-8" edge="1">
          <mxGeometry width="50" height="50" relative="1" as="geometry">
            <mxPoint x="223.5" y="30" as="sourcePoint" />
            <mxPoint x="224" y="90" as="targetPoint" />
          </mxGeometry>
        </mxCell>
        <mxCell id="peSS8BjJkWD9wYSKXk7N-113" value="" style="endArrow=classic;html=1;rounded=0;entryX=0.5;entryY=0;entryDx=0;entryDy=0;" parent="z_ddYTSFjH_n10K_XN0T-8" edge="1">
          <mxGeometry width="50" height="50" relative="1" as="geometry">
            <mxPoint x="359.5" y="30" as="sourcePoint" />
            <mxPoint x="360" y="90" as="targetPoint" />
          </mxGeometry>
        </mxCell>
        <mxCell id="peSS8BjJkWD9wYSKXk7N-114" value="" style="endArrow=classic;html=1;rounded=0;entryX=0.5;entryY=0;entryDx=0;entryDy=0;" parent="z_ddYTSFjH_n10K_XN0T-8" edge="1">
          <mxGeometry width="50" height="50" relative="1" as="geometry">
            <mxPoint x="499.5" y="30" as="sourcePoint" />
            <mxPoint x="500" y="90" as="targetPoint" />
          </mxGeometry>
        </mxCell>
        <mxCell id="peSS8BjJkWD9wYSKXk7N-115" value="" style="shape=curlyBracket;whiteSpace=wrap;html=1;rounded=1;flipH=1;labelPosition=right;verticalLabelPosition=middle;align=left;verticalAlign=middle;rotation=90;" parent="z_ddYTSFjH_n10K_XN0T-8" vertex="1">
          <mxGeometry x="280" y="660" width="20" height="420" as="geometry" />
        </mxCell>
        <mxCell id="peSS8BjJkWD9wYSKXk7N-116" value="每组任务异步运行" style="text;strokeColor=none;align=center;fillColor=none;html=1;verticalAlign=middle;whiteSpace=wrap;rounded=0;" parent="z_ddYTSFjH_n10K_XN0T-8" vertex="1">
          <mxGeometry x="260" y="900" width="60" height="30" as="geometry" />
        </mxCell>
      </root>
    </mxGraphModel>
  </diagram>
</mxfile>
